<svg xmlns="http://www.w3.org/2000/svg" viewBox="0 0 1024 1024" width="1024" height="1024">
  <defs>
    <linearGradient id="rGradient" x1="0" y1="0" x2="0" y2="1">
      <stop offset="0%" stop-color="#ffffff"/>
      <stop offset="100%" stop-color="#888888"/>
    </linearGradient>
  </defs>
  <rect x="102" y="102" width="820" height="820" rx="180" fill="#000000"/>
  <path d="M249.15 715.60L249.15 715.60Q242.97 720.69 238.98 716.15Q234.98 711.61 241.16 705.07L241.16 705.07Q298.20 644.76 329.98 646.76Q361.77 648.76 381.75 674.92L381.75 674.92Q406.82 708.70 424.80 713.24Q442.79 717.78 457.68 699.98L457.68 699.98Q484.20 668.01 491.11 623.33Q498.01 578.64 495.83 527.78L495.83 527.78Q493.29 466.75 469.13 415.89Q444.97 365.02 386.84 338.14L386.84 338.14Q317.45 306.53 265.68 337.23Q213.91 367.93 214.64 430.78L214.64 430.78Q214.64 474.01 240.80 504.89Q266.95 535.77 314.18 541.59L314.18 541.59Q363.23 547.76 404.28 518.70L404.28 518.70Q409.36 515.43 412.27 519.61Q415.18 523.78 408.27 530.32L408.27 530.32Q367.22 562.66 309.82 559.02L309.82 559.02Q254.60 555.39 220.27 520.51Q185.94 485.64 184.48 428.96L184.48 428.96Q185.94 325.79 261.68 277.47Q337.43 229.15 423.90 253.86L423.90 253.86Q487.47 272.75 526.71 339.96L526.71 339.96Q528.89 343.95 532.34 343.95Q535.79 343.95 537.61 338.50L537.61 338.50Q552.50 289.10 599.00 260.39Q645.51 231.69 700.00 259.30Q754.50 286.92 773.75 351.58L773.75 351.58Q790.46 401.72 806.08 395.18L806.08 395.18Q813.71 392.27 817.53 397.90Q821.34 403.53 811.53 409.35L811.53 409.35L684.74 483.82Q681.84 485.27 681.84 488.18L681.84 488.18Q681.11 491.09 683.29 493.27L683.29 493.27Q731.61 536.14 741.78 601.17L741.78 601.17Q757.76 665.11 778.47 691.63Q799.18 718.15 825.34 696.35L825.34 696.35Q832.60 690.54 837.69 696.71Q842.78 702.89 833.69 709.79L833.69 709.79Q810.44 726.50 787.56 743.76Q764.67 761.02 741.78 777.36L741.78 777.36Q739.60 779.18 735.97 778.09L735.97 778.09Q673.84 755.93 647.69 640.04L647.69 640.04Q637.15 588.45 623.71 561.57Q610.27 534.68 585.93 540.50L585.93 540.50Q576.84 543.04 575.57 537.77Q574.30 532.50 582.66 527.78L582.66 527.78L718.89 442.77Q721.07 441.32 721.80 438.05L721.80 438.05Q721.80 436.23 719.98 432.96L719.98 432.96Q702.91 417.70 688.74 400.99Q674.57 384.28 669.85 362.48L669.85 362.48Q661.13 323.24 635.33 306.17Q609.54 289.10 582.66 303.26L582.66 303.26Q556.50 317.07 551.59 347.95Q546.69 378.83 553.23 404.99L553.23 404.99Q569.21 469.29 560.86 538.32L560.86 538.32Q553.96 591.36 527.25 636.95Q500.55 682.54 455.87 730.14Q411.18 777.73 373.40 774.82Q335.62 771.92 311.27 739.95L311.27 739.95Q290.93 713.06 275.49 709.97Q260.05 706.89 249.15 715.60Z" fill="url(#rGradient)"/>
</svg>
